<svg width="96" height="35" viewBox="0 0 96 35" fill="none" xmlns="http://www.w3.org/2000/svg">
<path fill-rule="evenodd" clip-rule="evenodd" d="M15.4901 2.75992H80.0099C87.3222 2.75992 93.25 8.68771 93.25 16C93.25 23.3123 87.3222 29.2401 80.0099 29.2401H15.4901C8.17779 29.2401 2.25 23.3123 2.25 16C2.25 8.68771 8.17779 2.75992 15.4901 2.75992ZM0.25 16C0.25 7.58314 7.07322 0.759918 15.4901 0.759918H80.0099C88.4268 0.759918 95.25 7.58314 95.25 16C95.25 20.3709 93.41 24.312 90.4623 27.091L95.3107 31.9393C95.8964 32.5251 95.8964 33.4749 95.3107 34.0607C94.7249 34.6464 93.7751 34.6464 93.1893 34.0607L88.0671 28.9385C85.7296 30.3972 82.9682 31.2401 80.0099 31.2401H15.4901C7.07322 31.2401 0.25 24.4169 0.25 16Z" fill="url(#paint0_linear_1_17)"/>
<path d="M19.49 21.168C18.7153 21.168 17.9967 21.042 17.334 20.79C16.6807 20.5287 16.1067 20.1647 15.612 19.698C15.1267 19.2313 14.7487 18.6853 14.478 18.06C14.2073 17.4347 14.072 16.7533 14.072 16.016C14.072 15.2693 14.212 14.5833 14.492 13.958C14.7813 13.3327 15.178 12.7913 15.682 12.334C16.1953 11.8673 16.788 11.508 17.46 11.256C18.132 10.9947 18.8507 10.864 19.616 10.864C20.54 10.864 21.366 11.0227 22.094 11.34C22.8313 11.6573 23.4287 12.0867 23.886 12.628L21.996 14.518C21.6507 14.1167 21.2913 13.818 20.918 13.622C20.5447 13.426 20.0967 13.328 19.574 13.328C19.0793 13.328 18.6313 13.44 18.23 13.664C17.8287 13.8787 17.5067 14.1867 17.264 14.588C17.0307 14.9893 16.914 15.4607 16.914 16.002C16.914 16.5433 17.0213 17.0193 17.236 17.43C17.46 17.8313 17.768 18.144 18.16 18.368C18.552 18.592 19.0093 18.704 19.532 18.704C20.036 18.704 20.4607 18.606 20.806 18.41C21.1513 18.214 21.4127 17.934 21.59 17.57C21.7767 17.206 21.87 16.7767 21.87 16.282L23.788 17.5L19.154 17.36V15.12H24.684V15.54C24.684 16.7347 24.4647 17.752 24.026 18.592C23.5967 19.432 22.99 20.0713 22.206 20.51C21.4313 20.9487 20.526 21.168 19.49 21.168ZM25.7323 21V11.032H28.5323V21H25.7323ZM30.1893 21V11.032H32.9893V21H30.1893ZM32.4573 17.458V15.134H37.3573V17.458H32.4573ZM32.4573 13.356V11.032H37.5673V13.356H32.4573ZM43.3518 21.14C42.9971 21.14 42.6565 21.0933 42.3298 21C42.0031 20.8973 41.7045 20.7573 41.4338 20.58C41.1725 20.4027 40.9438 20.1927 40.7478 19.95L41.3778 19.306C41.6391 19.6233 41.9331 19.8613 42.2598 20.02C42.5958 20.1693 42.9691 20.244 43.3798 20.244C43.8185 20.244 44.1591 20.16 44.4018 19.992C44.6538 19.824 44.7798 19.5907 44.7798 19.292C44.7798 19.012 44.6911 18.7927 44.5138 18.634C44.3365 18.4753 44.1078 18.3493 43.8278 18.256C43.5571 18.1627 43.2678 18.074 42.9598 17.99C42.6518 17.8967 42.3578 17.7847 42.0778 17.654C41.7978 17.514 41.5691 17.3227 41.3918 17.08C41.2238 16.8373 41.1398 16.52 41.1398 16.128C41.1398 15.7547 41.2285 15.4327 41.4058 15.162C41.5925 14.882 41.8538 14.6673 42.1898 14.518C42.5351 14.3593 42.9411 14.28 43.4078 14.28C43.9025 14.28 44.3505 14.3687 44.7518 14.546C45.1531 14.7233 45.4751 14.9847 45.7178 15.33L45.0878 15.96C44.8918 15.708 44.6445 15.5167 44.3458 15.386C44.0565 15.246 43.7298 15.176 43.3658 15.176C42.9458 15.176 42.6238 15.26 42.3998 15.428C42.1851 15.5867 42.0778 15.7967 42.0778 16.058C42.0778 16.31 42.1665 16.5107 42.3438 16.66C42.5211 16.8 42.7451 16.9167 43.0158 17.01C43.2958 17.094 43.5898 17.1827 43.8978 17.276C44.2058 17.36 44.4998 17.4767 44.7798 17.626C45.0598 17.766 45.2838 17.962 45.4518 18.214C45.6291 18.4567 45.7178 18.788 45.7178 19.208C45.7178 19.796 45.5031 20.2673 45.0738 20.622C44.6538 20.9673 44.0798 21.14 43.3518 21.14ZM50.3074 21.14C49.6447 21.14 49.0521 20.9907 48.5294 20.692C48.0067 20.3933 47.5914 19.9827 47.2834 19.46C46.9847 18.9373 46.8354 18.3493 46.8354 17.696C46.8354 17.052 46.9847 16.4733 47.2834 15.96C47.5821 15.4373 47.9881 15.0267 48.5014 14.728C49.0147 14.4293 49.5887 14.28 50.2234 14.28C50.8207 14.28 51.3481 14.4153 51.8054 14.686C52.2721 14.9567 52.6361 15.3347 52.8974 15.82C53.1681 16.296 53.3034 16.8467 53.3034 17.472C53.3034 17.5467 53.2987 17.6353 53.2894 17.738C53.2801 17.8313 53.2614 17.9433 53.2334 18.074H47.5354V17.234H52.7014L52.3514 17.542C52.3607 17.0567 52.2767 16.6413 52.0994 16.296C51.9314 15.9413 51.6841 15.6707 51.3574 15.484C51.0401 15.288 50.6527 15.19 50.1954 15.19C49.7194 15.19 49.3041 15.2927 48.9494 15.498C48.5947 15.7033 48.3147 15.9927 48.1094 16.366C47.9134 16.73 47.8154 17.164 47.8154 17.668C47.8154 18.172 47.9181 18.6153 48.1234 18.998C48.3381 19.3807 48.6321 19.6793 49.0054 19.894C49.3881 20.1087 49.8267 20.216 50.3214 20.216C50.7227 20.216 51.0914 20.146 51.4274 20.006C51.7634 19.8567 52.0481 19.6373 52.2814 19.348L52.9114 19.992C52.6034 20.356 52.2207 20.6407 51.7634 20.846C51.3154 21.042 50.8301 21.14 50.3074 21.14ZM57.6586 21.14C57.0333 21.14 56.4733 20.9907 55.9786 20.692C55.4839 20.384 55.0919 19.9733 54.8026 19.46C54.5226 18.9467 54.3826 18.368 54.3826 17.724C54.3826 17.0707 54.5226 16.4873 54.8026 15.974C55.0919 15.4513 55.4839 15.0407 55.9786 14.742C56.4733 14.434 57.0286 14.28 57.6446 14.28C58.1486 14.28 58.5966 14.3827 58.9886 14.588C59.3899 14.784 59.7119 15.064 59.9546 15.428C60.2066 15.7827 60.3606 16.198 60.4166 16.674V18.732C60.3606 19.208 60.2066 19.628 59.9546 19.992C59.7119 20.356 59.3899 20.6407 58.9886 20.846C58.5966 21.042 58.1533 21.14 57.6586 21.14ZM57.8126 20.202C58.4939 20.202 59.0399 19.9733 59.4506 19.516C59.8706 19.0587 60.0806 18.4567 60.0806 17.71C60.0806 17.2153 59.9826 16.7813 59.7866 16.408C59.5999 16.0253 59.3339 15.7313 58.9886 15.526C58.6526 15.3113 58.2559 15.204 57.7986 15.204C57.3319 15.204 56.9166 15.3113 56.5526 15.526C56.1979 15.7407 55.9133 16.0393 55.6986 16.422C55.4933 16.7953 55.3906 17.2247 55.3906 17.71C55.3906 18.1953 55.4933 18.6247 55.6986 18.998C55.9133 19.3713 56.2026 19.6653 56.5666 19.88C56.9306 20.0947 57.3459 20.202 57.8126 20.202ZM60.0246 21V19.236L60.2206 17.612L60.0246 16.03V14.42H61.0046V21H60.0246ZM62.992 21V14.42H63.972V21H62.992ZM63.972 17.164L63.566 16.982C63.566 16.1513 63.7667 15.4933 64.168 15.008C64.5787 14.5227 65.1387 14.28 65.848 14.28C66.1747 14.28 66.4734 14.3407 66.744 14.462C67.0147 14.574 67.2667 14.756 67.5 15.008L66.856 15.694C66.6974 15.5167 66.52 15.3907 66.324 15.316C66.1374 15.2413 65.9227 15.204 65.68 15.204C65.176 15.204 64.7654 15.372 64.448 15.708C64.1307 16.0347 63.972 16.52 63.972 17.164ZM71.3064 21.14C70.6624 21.14 70.0791 20.9907 69.5564 20.692C69.0431 20.384 68.6324 19.9687 68.3244 19.446C68.0257 18.9233 67.8764 18.34 67.8764 17.696C67.8764 17.052 68.0257 16.4733 68.3244 15.96C68.6324 15.4373 69.0431 15.0267 69.5564 14.728C70.0791 14.4293 70.6624 14.28 71.3064 14.28C71.8011 14.28 72.2631 14.3733 72.6924 14.56C73.1217 14.7467 73.4857 15.008 73.7844 15.344L73.1404 16.002C72.9164 15.75 72.6457 15.5587 72.3284 15.428C72.0111 15.288 71.6704 15.218 71.3064 15.218C70.8397 15.218 70.4244 15.3253 70.0604 15.54C69.6964 15.7547 69.4117 16.0487 69.2064 16.422C69.0011 16.786 68.8984 17.2107 68.8984 17.696C68.8984 18.172 69.0011 18.6013 69.2064 18.984C69.4117 19.3573 69.6964 19.6513 70.0604 19.866C70.4244 20.0807 70.8397 20.188 71.3064 20.188C71.6797 20.188 72.0251 20.1227 72.3424 19.992C72.6597 19.852 72.9304 19.656 73.1544 19.404L73.8124 20.062C73.5044 20.4073 73.1311 20.6733 72.6924 20.86C72.2631 21.0467 71.8011 21.14 71.3064 21.14ZM79.9754 21V17.136C79.9754 16.5573 79.8027 16.0907 79.4574 15.736C79.1214 15.372 78.6734 15.19 78.1134 15.19C77.7307 15.19 77.3947 15.274 77.1054 15.442C76.816 15.61 76.5874 15.8387 76.4194 16.128C76.2514 16.4173 76.1674 16.7487 76.1674 17.122L75.7194 16.87C75.7194 16.3753 75.836 15.932 76.0694 15.54C76.3027 15.148 76.6154 14.84 77.0074 14.616C77.4087 14.392 77.866 14.28 78.3794 14.28C78.8834 14.28 79.3314 14.3967 79.7234 14.63C80.1154 14.854 80.4187 15.1667 80.6334 15.568C80.8574 15.9693 80.9694 16.436 80.9694 16.968V21H79.9754ZM75.1874 21V11.088H76.1674V21H75.1874Z" fill="#F4F6FD"/>
<defs>
<linearGradient id="paint0_linear_1_17" x1="0.250001" y1="17" x2="96.75" y2="17" gradientUnits="userSpaceOnUse">
<stop stop-color="#5AEA57"/>
<stop offset="0.486565" stop-color="#5CD4FA"/>
<stop offset="1" stop-color="#D662FF"/>
</linearGradient>
</defs>
</svg>
